<svg width="41" height="32" viewBox="0 0 41 32" fill="none" xmlns="http://www.w3.org/2000/svg">
<path d="M4 0.75H37C38.7949 0.75 40.25 2.20508 40.25 4V16.7059C40.25 18.5008 38.7949 19.9559 37 19.9559H36.4493C35.827 19.9559 35.2514 20.2864 34.9378 20.824L30.5017 28.4276C30.4605 28.4981 30.4164 28.5257 30.3802 28.5391C30.3374 28.555 30.2808 28.5592 30.2205 28.5429C30.1601 28.5266 30.1134 28.4945 30.0844 28.4592C30.0599 28.4293 30.0357 28.3833 30.0357 28.3016V21.7059C30.0357 20.7394 29.2522 19.9559 28.2857 19.9559H20.5H4C2.20507 19.9559 0.75 18.5008 0.75 16.7059V4C0.75 2.20508 2.20508 0.75 4 0.75Z" stroke="black" stroke-width="1.5"/>
<circle cx="21" cy="6" r="2.25" stroke="#F56047" stroke-width="1.5"/>
<path d="M15.8032 15.25C16.1671 12.7058 18.3551 10.75 21 10.75C23.6449 10.75 25.8329 12.7058 26.1968 15.25H21H15.8032Z" stroke="#F56047" stroke-width="1.5"/>
</svg>
