<svg width="41" height="32" viewBox="0 0 41 32" fill="none" xmlns="http://www.w3.org/2000/svg">
<rect x="0.75" y="0.75" width="39.5" height="30.5" rx="3.25" stroke="black" stroke-width="1.5"/>
<rect x="4.75" y="14.75" width="8.5" height="7.5" rx="1.25" stroke="black" stroke-width="1.5"/>
<circle cx="36" cy="5" r="1" fill="black"/>
<circle cx="20" cy="27" r="1" fill="black"/>
<path d="M2 10.75H39C39.6904 10.75 40.25 11.3096 40.25 12V28C40.25 29.7949 38.7949 31.25 37 31.25H4C2.20508 31.25 0.75 29.7949 0.75 28V12C0.75 11.3096 1.30964 10.75 2 10.75Z" stroke="black" stroke-width="1.5"/>
<line x1="22.75" y1="21.25" x2="36.25" y2="21.25" stroke="#F56047" stroke-width="1.5" stroke-linecap="round"/>
<line x1="18.75" y1="15.25" x2="36.25" y2="15.25" stroke="#F56047" stroke-width="1.5" stroke-linecap="round"/>
<line x1="5.75" y1="5.25" x2="32.25" y2="5.25" stroke="#F56047" stroke-width="1.5" stroke-linecap="round"/>
<line x1="23.75" y1="27.25" x2="36.25" y2="27.25" stroke="black" stroke-width="1.5" stroke-linecap="round"/>
<line x1="18.75" y1="18.25" x2="36.25" y2="18.25" stroke="#F56047" stroke-width="1.5" stroke-linecap="round"/>
</svg>
