<svg width="41" height="32" viewBox="0 0 41 32" fill="none" xmlns="http://www.w3.org/2000/svg">
<path d="M8.75008 6.25L8.75008 7H8.75008L8.75008 6.25ZM25.5303 6.78033C25.8232 6.48744 25.8232 6.01256 25.5303 5.71967L20.7574 0.946698C20.4645 0.653805 19.9896 0.653805 19.6967 0.946698C19.4038 1.23959 19.4038 1.71447 19.6967 2.00736L23.9393 6.25L19.6967 10.4926C19.4038 10.7855 19.4038 11.2604 19.6967 11.5533C19.9896 11.8462 20.4645 11.8462 20.7574 11.5533L25.5303 6.78033ZM8.75008 18L8.75008 18.75H8.75008L8.75008 18ZM33.4999 18L33.4999 18.75L33.4999 18.75L33.4999 18ZM33.4999 27.5L33.4999 28.25L33.4999 28.25L33.4999 27.5ZM12 26.75C11.5858 26.75 11.25 27.0858 11.25 27.5C11.25 27.9142 11.5858 28.25 12 28.25L12 26.75ZM8.75008 7L25 7L25 5.5L8.75008 5.5L8.75008 7ZM8.75008 5.5C3.53397 5.5 0.687511 8.70374 0.687501 12.125C0.68749 15.5463 3.53394 18.75 8.75008 18.75L8.75008 17.25C4.21608 17.25 2.18749 14.5787 2.1875 12.125C2.18751 9.67125 4.21612 7 8.75008 7L8.75008 5.5ZM8.75008 18.75L33.4999 18.75L33.4999 17.25L8.75008 17.25L8.75008 18.75ZM33.4999 18.75C35.2116 18.75 36.4237 19.2886 37.2022 20.0281C37.9851 20.772 38.375 21.7604 38.375 22.75C38.375 23.7396 37.9851 24.728 37.2022 25.4719C36.4237 26.2114 35.2116 26.75 33.4999 26.75L33.4999 28.25C35.5383 28.25 37.1388 27.601 38.2353 26.5594C39.3273 25.5219 39.875 24.1354 39.875 22.75C39.875 21.3646 39.3273 19.978 38.2353 18.9406C37.1388 17.8989 35.5383 17.25 33.4999 17.25L33.4999 18.75ZM33.4999 26.75L12 26.75L12 28.25L33.4999 28.25L33.4999 26.75Z" fill="black"/>
<circle cx="34.5" cy="6.5" r="2.75" stroke="#F56047" stroke-width="1.5"/>
<circle cx="34.5" cy="6.5" r="5.75" stroke="#F56047" stroke-width="1.5"/>
<circle cx="4.5" cy="27.5" r="4.5" fill="#F56047"/>
</svg>
