<svg width="41" height="32" viewBox="0 0 41 32" fill="none" xmlns="http://www.w3.org/2000/svg">
<path d="M22 0.75H39C39.6904 0.75 40.25 1.30964 40.25 2V10.2941C40.25 10.9812 39.6869 11.5441 38.9933 11.5441C38.3338 11.5441 37.7261 11.9152 37.428 12.5074L36.2233 14.9011C36.1846 14.9779 36.1409 15.0076 36.1059 15.0224C36.0636 15.0402 36.0055 15.047 35.9422 15.0319C35.8789 15.0169 35.8302 14.9848 35.8004 14.9498C35.7758 14.9209 35.75 14.8747 35.75 14.7887V13.2941C35.75 12.3276 34.9665 11.5441 34 11.5441H30.5H22C21.3096 11.5441 20.75 10.9845 20.75 10.2941V2C20.75 1.30964 21.3096 0.75 22 0.75Z" stroke="black" stroke-width="1.5"/>
<line x1="26.9082" y1="7.25" x2="37.2503" y2="7.25" stroke="#F56047" stroke-width="1.5" stroke-linecap="round"/>
<line x1="23.75" y1="4.25" x2="37.25" y2="4.25" stroke="#F56047" stroke-width="1.5" stroke-linecap="round"/>
<path d="M19 15.75H2C1.30964 15.75 0.75 16.3096 0.75 17V24C0.75 24.6904 1.30964 25.25 2 25.25H2.04015C2.67238 25.25 3.25545 25.591 3.56541 26.142L4.7821 28.3051C4.82267 28.3772 4.8667 28.4053 4.90261 28.4191C4.94531 28.4355 5.00228 28.4403 5.06335 28.4243C5.12442 28.4083 5.17171 28.3762 5.20089 28.341C5.22542 28.3113 5.25 28.2652 5.25 28.1825V27C5.25 26.0335 6.0335 25.25 7 25.25H10.5H19C19.6904 25.25 20.25 24.6904 20.25 24V17C20.25 16.3096 19.6904 15.75 19 15.75Z" stroke="black" stroke-width="1.5"/>
<line x1="0.75" y1="-0.75" x2="11.0921" y2="-0.75" transform="matrix(-1 5.24537e-08 1.45705e-07 1 14.8418 22)" stroke="#F56047" stroke-width="1.5" stroke-linecap="round"/>
<line x1="0.75" y1="-0.75" x2="14.25" y2="-0.75" transform="matrix(-1 -4.14108e-08 -1.84559e-07 1 18 19)" stroke="#F56047" stroke-width="1.5" stroke-linecap="round"/>
</svg>
